<svg xmlns="http://www.w3.org/2000/svg" viewBox="0 0 678.93 326.76">
    <defs>
        <style>
            .cls-2{fill:#431f0d}.cls-6{fill:#5a3418;opacity:.6;mix-blend-mode:screen}
        </style>
    </defs>
    <g style="isolation:isolate">
        <path class="cls-2" d="M264 544c-5.83-1.63 46.73-5 40.92-5.14 16.87 8 37.59 15.48 36.94 35.64a28.65 28.65 0 0 1 2.78 13.56c-.2-.08-.4-.18-.6-.27-13.15-5.56-26.44-5.9-40.52-5.33-8 .32-16 .69-24 1.55-3.17.34-6.17.92-9.15 1.37 5 .46 10 .79 15 1.26 6.3.59 12.49 1.65 18.84 1.84 8.89.27 17.68.42 26.39 2.48 18.52 4.37 34.61 13.41 51.91 20.93 8.84 3.84 17.84 7.34 27.29 9.31l1.14.23c-8.44-4.07-17-8-25.46-11.92 5-.42 10.16-1.36 14.25-1.71a384.41 384.41 0 0 1 40.31-1.35c27.6.47 55.83 1.26 83.23 4.55 26.75 3.21 52.19 12.5 79 15.49 8.29.93 16.68 1.37 25.11 1.47 9-1 17.89-2.21 26.62-3.62 8.08-1.32 16.2-2.79 24.38-3.4-16.45.37-32.81.87-49.18-.09 6.85-3.73 13.83-7.16 21-10.37 18.08-8.17 35.54-16 54.57-21.85a299.63 299.63 0 0 1 51.62-11.49c18.2-3.75 36.89-5.88 55.25-8.95a319.05 319.05 0 0 0-32.78-.79 119.1 119.1 0 0 1 28.33-14.24 19.72 19.72 0 0 0 8 2.42 1.59 1.59 0 0 0 .61-.14c-7-4.09-14.14-8-21.75-10.58C786 542.1 866.28 567.11 858 566c0 0 16.84 80.61-57 124-80.91 47.54-261.19 60.89-337 52-145-17-250-98-235-137s35-61 35-61Z" transform="translate(-202.57 -417.82)" id="Layer_1_copy" data-name="Layer 1 copy"/>
        <g id="Layer_1" data-name="Layer 1">
            <path d="M858.29 565.54a110.41 110.41 0 0 0-22.52-7.47c-3.43-.74-8.09.11-11.76-.65 9.77-3.31 23.73-1.95 29.37-10.62.2-.31.73-1.12.32-1.5a13.16 13.16 0 0 0-3-2 88.07 88.07 0 0 0 16.21-4c6.48-2.38 10.36-9.15 3.89-13.85-4.79-3.47-11.4-4.83-17-6.28-9.26-2.37-18.54-4.88-27.89-6.88-8.16-1.75-16.61-2.66-24.88-3.83a88.17 88.17 0 0 0-10-.27c6.37-2.12 12.59-4.71 18.77-7.33 5.65-2.4 11.73-5.41 15.15-10.7 8.83-13.65-33.22-23-39.66-24.3-28.48-5.62-58.14-6.86-87.09-7.2-6.71-.08-13.42 0-20.13.29 4.71-2.6 12.31-6.86 13.32-12.66 2.09-12-19.28-13.37-27.09-15.12-56-12.55-114-15.52-171.08-11.94-24.07 1.51-48.61 2.08-72.21 7.41-5.9 1.34-17.34 4.32-18.9 11.56-.49 2.3.45 4.45 2.3 6.44-8.2.58-16.36 1.68-24.51 2.67-23.52 2.85-46.59 7.46-68.26 17.32-9.85 4.47-26.55 14.95-16.32 26.92 5.31 6.22 17.31 9.08 24.62 11.48a102.32 102.32 0 0 0 15.11 4.2c2.77.46 6.12.91 8.88 2.2-8.34 1.74-16.61 3-24 8.15-4.27 3-4 5.1-2 6.88-6.16.33-13.36-.79-18.51-.3a176.55 176.55 0 0 0-31.67 6.14 191.08 191.08 0 0 0-51.13 22.84c-3.15 2-20.69 13.13-11.32 18 5 2.61 10.65 2.2 16.15 2.64 7.74.61 18.66-.62 27.13 1.47a67.39 67.39 0 0 0-17.93 8.31c-2.78 1.81-10 6.23-7.71 10.5 1 1.77 6.49 1.68 8.15 1.91 3.55.49 14.9-1.58 5 2.09-4.4 1.65-10 3.55-11.58 8.39a1 1 0 0 0 .14.91c5.52 3.93 17.59.66 24.27 1.08 6.37.4 12.58 1.77 19 2 4.41.14 10.64.44 15.48 2.08-11.12 5.13-25.4 10.23-29.61 21.89-2.39 6.59 48.38 10.8 52.21 11.29 24.71 3.17 51.39.54 76-2.56 12.76-1.6 25.46-3.63 38.22-5.29 3.29-.42 6.87-.56 10.44-.87a25.47 25.47 0 0 0-8.46 7.74c-.5.77-1.15 1.92-.1 2.52 8 4.58 21-3.7 30.74-5.9-7 5.21-19 12.17-5.48 16.1 22.47 6.54 48.46 4.92 71.57 4.33 25.48-.66 50.94-1.38 76.31-4.07 8.14-.87 32.42-.17 33.95-12l1.42-.07c11.7-.45 24.32.69 36.43 2-6.67 2.08-13.1 5-16.38 9.86-.41.61-1.44 2.43-.12 2.8 11.9 3.26 26.27.89 38.51.78 16.73-.14 33.47-1.18 50.12-2.71 25.71-2.38 50.28-8.36 74.79-16.21 11-3.51 31.35-9 35.72-21.45 2.58-7.4-4.76-11.13-10.8-12.87-6.69-1.93-13.44-4-20.14-6-4.43-1.33-9.59-1.42-14.14-2.74 3.67-.48 8.32 0 11-.32 5.14-.67 9.92-.94 14.71-3.05 1.41-.62 4.25-2.79 3.35-4.63a6.25 6.25 0 0 0-3.06-2.82c11-1.91 22-3.07 33.19-2 6.19.58 13.89 3.68 17.4-3.47 3.52-7.27-19.13-15.53-22.9-17.26Z" transform="translate(-202.57 -417.82)" style="fill:#a16526"/>
            <path d="M803.77 562.83c8.71-3.15 18.52-4.92 26.24-10.3 9.8-6.83-2.49-12.83-9-14.73-9.48-2.76-19.37-3.91-29.16-4.93-6.22-.66-12.94-.71-19-2.45a1.06 1.06 0 0 1 0-2c9.19-2 20.25-1.19 28-7.26-11-6.17-25.34-1.74-37.1-6.17a1.06 1.06 0 0 1 0-2c9.88-3.68 19.88-7.18 29.19-12.19 5.21-2.8 23.51-13.14 15.73-21.42-5.76-6.14-18.78-2.29-25.6-.36-7.71 2.18-15.94 4.8-22.73 9.19-.94.61-1.88-.56-1.44-1.45 4.24-8.45-12-11.25-17.17-11.83-4.43-.49-17.94-2.3-20.37 3.06a1.06 1.06 0 0 1-1.44.38c-7.44-3.41-18.14-2.21-26-1.35-7.65.83-19.37 1.83-24.73 8.21a1 1 0 0 1-1.49 0c-2-2.54-2.34-4.65-2.71-7.81-.54-4.56-4.12-7.32-7.88-9.28-6-3.12-12.6-4.75-19.22-5.81-14.66-2.35-29.63-3.95-44.4-5.3-33.34-3.06-68.09-3.58-100.43 6.26a25.65 25.65 0 0 0 3.93 5 1.06 1.06 0 0 1-.74 1.8c-17.25.35-33.19 9.47-50.61 7.73a1.06 1.06 0 0 1-.28-2.07c2.1-.65 12.05-3.53 7.12-6.73a34.23 34.23 0 0 0-10-3.93 132.26 132.26 0 0 0-23.07-3.65c-12.8-1-27.81-1.67-41.59 1-2.1.62-4.2 1.28-6.26 2-8.45 3.05-22.95 8.77-24.38 19.25-1.69 12.46 15.54 19.21 24.91 22.21a1.06 1.06 0 0 1 0 2c-5.33 1.19-26.35 5.33-20.45 13.92a1.06 1.06 0 0 1-.63 1.55c-16.06 3.15-32.48 4.89-48.26 9.32-8.32 2.33-16.89 5.1-24.37 9.51-2.26 1.33-9.26 4.95-8.16 8.57 1.77 5.9 14.56 7.12 19.45 7.93 7.43 1.24 14.92 1.92 22.4 2.66 1.11.11 1.53 1.81.28 2.07a54.85 54.85 0 0 0-8.54 2.46c-1.93.75-4.65 1.66-6.08 3.27-2.1 2.35 2 3.49 3.13 3.82 5.23 1.57 12.06 1.57 16.66 4.69a1.06 1.06 0 0 1-.25 1.92c-9 3.24-18.93 3.24-28.31 4.64-9.23 1.38-19.76 3.43-25.7 11.23 7.7 1.68 15.73.22 23.45-.79 8.16-1.08 15.41-1.22 23.48.64a136 136 0 0 1 48 21.6c6.52 4.61 12.92 9.7 20.12 13.24a58.92 58.92 0 0 0 22.18 5.74c6.94.49 14.52.73 21.22-1.43a18.05 18.05 0 0 0 4.88-2.15c1.37-1-2.39-3.79-3.06-4.34a37.59 37.59 0 0 0-12.66-6.91c-.9-.29-1.1-1.86 0-2 23.16-3.65 46.74-3.13 70.07-1.76 22.34 1.31 44.43 3.21 66.47 7.12 33.17 5.88 67.1 14.26 101 14.94A188.51 188.51 0 0 0 717.46 618c-11.26-5.58-23.94-1.59-36-3.91a1.06 1.06 0 0 1-.25-1.92c28.47-13.47 59.72-19.71 90.57-25 21.69-3.76 43.66-8 65.72-9.86-10-6.28-23.71-6.5-34-12.47a1.07 1.07 0 0 1 .27-2.01Z" transform="translate(-202.57 -417.82)" style="mix-blend-mode:multiply;opacity:.5;fill:#a16526"/>
            <path class="cls-2" d="M769.74 540c-7.2-1-30.64-3.58-27.59-15.92 1.58-6.42 7.71-11.21 12.66-15.09a113 113 0 0 1 17-11 220.27 220.27 0 0 1 26.6-11.39c-6 1.15-11.79 3-17.75 4.55-2.08.55-4.19 1-6.3 1.49-4.15 1.95-8.19 3.95-12 5.95-6.62 3.51-12.81 7.23-18 12.14q-4.82-1.47-9.64-3a219.17 219.17 0 0 0-41.65-8.49c-21.55.68-43.11 2.86-64.7 2.41a192.38 192.38 0 0 1-50.2-8 142.76 142.76 0 0 0-23.5-4.7c-2.2-.26-4.4-.55-6.55-1-25.06-2.62-50.19-4.09-75.2.18-18.31 3.13-35.92 8.53-54.62 8.77-2.33 0-15 .22-25.1-1.43a90.87 90.87 0 0 0-7.75-6.62c4.58 6.38 9 13.6 8.66 20.93-.32 6.78-4.64 10.29-10.23 13.46a87.72 87.72 0 0 1-24.32 9.33c-2.32.51-4.65.95-7 1.34-2.69.89-5.33 1.67-7.84 2.33-7.35 1.91-14.81 3.24-22.08 5.11a71.15 71.15 0 0 0-17.75-2.53c16.87 8 37.59 15.48 36.94 35.64a28.65 28.65 0 0 1 2.78 13.56c-.2-.08-.4-.18-.6-.27-13.15-5.56-26.44-5.9-40.52-5.33-8 .32-16 .69-24 1.55-3.17.34-6.17.92-9.15 1.37 5 .46 10 .79 15 1.26 6.3.59 12.49 1.65 18.84 1.84 8.89.27 17.68.42 26.39 2.48 18.52 4.37 34.61 13.41 51.91 20.93 8.84 3.84 17.84 7.34 27.29 9.31l1.14.23c-8.44-4.07-17-8-25.46-11.92 5-.42 10.16-1.36 14.25-1.71a384.41 384.41 0 0 1 40.31-1.35c27.6.47 55.83 1.26 83.23 4.55 26.75 3.21 52.19 12.5 79 15.49 8.29.93 16.68 1.37 25.11 1.47 9-1 17.89-2.21 26.62-3.62 8.08-1.32 16.2-2.79 24.38-3.4-16.45.37-32.81.87-49.18-.09 6.85-3.73 13.83-7.16 21-10.37 18.08-8.17 35.54-16 54.57-21.85a299.63 299.63 0 0 1 51.62-11.49c18.2-3.75 36.89-5.88 55.25-8.95a319.05 319.05 0 0 0-32.78-.79 119.1 119.1 0 0 1 28.33-14.24 19.72 19.72 0 0 0 8 2.42 1.59 1.59 0 0 0 .61-.14c-7-4.09-14.14-8-21.75-10.58-8.02-2.72-16.02-3.68-24.28-4.82Z" transform="translate(-202.57 -417.82)"/>
            <path d="M776 567.48a294.55 294.55 0 0 0-61.89 8.68 230.27 230.27 0 0 0-52 20.78c-3.3 1.78-33.72 18.21-39.12 23.46q-7.12-.58-14.26-1.64c-25-3.78-47.92-15.15-73.07-18.35-27.94-3.56-56.32-3.71-84.46-3.56-13.09.08-26.15.51-39.07 2.75-7.11 1.24-14.14 2.8-21.23 4.14-3.62.69-7.69 2.1-11.59 2.79-10.5-5.21-20.21-11.71-30.8-16.76 7.94-9.33 3.33-25.39-3-34.09a33 33 0 0 0-8.36-7.83 46.09 46.09 0 0 0 9.21-3.06 117.69 117.69 0 0 0 18.4-7.66 60.24 60.24 0 0 0 10.32-7c9.43-3.28 21.79-6.49 25.65-15.48a11.58 11.58 0 0 0-.12-9.13c16.49 1.1 36.05-1.15 40.75-2.4 21.06-5.57 42.08-11.5 64-12.11 18.77-.53 37.5 1.48 56.25 2.39 10.3 4.72 21.8 6.36 32.85 9.52 21 6 43.33 5.36 64.94 5.11 24.42-.28 48.06-3.67 71.92 3.45 3.17.95 6.37 2 9.58 3.11a42.58 42.58 0 0 0-2.7 3.59c-5.2 4-9.42 9.1-7.61 15 2.91 9.54 21.49 12.21 29.09 13.07 9.49 1.07 19 1.2 28.52 1.71a48.44 48.44 0 0 1 12.84 2.39A104 104 0 0 0 776 567.48Z" transform="translate(-202.57 -417.82)" style="fill:#5a3418"/>
            <path class="cls-6" d="M458.81 548.54c-.91-16.56-1.16-33.13-1.21-49.71-5.46 1.39-10.91 2.85-16.36 4.29a112.12 112.12 0 0 1-15.49 2c3.11 17.58 3.77 35.56 6.32 53.26 1.87 13 4.93 25.79 7.7 38.63 3.78-.11 7.56-.17 11.35-.2h12.91c-1.92-16.06-4.34-32.12-5.22-48.27ZM512.85 595.35a263 263 0 0 0-.45-39.89c-1.8-21.41-1.33-43-.67-64.49h-4.47q-.43 8.86-1.25 17.72c-1.13 12.22-3.12 24.36-4.09 36.6-1.37 17.39-1.3 34.81-1.29 52.23 4 .18 8 .42 12 .69.09-.94.15-1.9.22-2.86ZM588.8 602c3.44-15.69 6.33-31.41 10.81-46.86 4.54-15.68 9.44-31.25 13.78-47l.38-1.43a123.76 123.76 0 0 1-19.44-3.83c-5.53-1.58-11.17-2.78-16.72-4.18-.41 2.36-.79 4.71-1.11 7-2.41 17.59-3.88 35.26-6 52.87-2 16.14-4.1 32.33-5.41 48.55 6.9 2.07 13.76 4.29 20.67 6.28 1.13-3.71 2.24-7.52 3.04-11.4Z" transform="translate(-202.57 -417.82)"/>
            <path d="M788.07 548c-9.53-.51-19-.64-28.52-1.71-7.6-.86-26.18-3.53-29.09-13.07-1.81-5.94 2.41-11.06 7.61-15a42.58 42.58 0 0 1 2.7-3.59c-3.21-1.1-6.41-2.16-9.58-3.11l-1.22-.34c-9.09 16.38-18.64 32.51-27.06 49.25a1.14 1.14 0 0 1-2.07-.87c5.38-16.95 7.76-34.81 13.73-51.47-3.28-.41-6.55-.68-9.83-.84-2 5.1-4 10.19-5.8 15.34-5.43 16-9.74 32.64-16.91 48-.5 1.07-2.08.48-2.1-.57a175 175 0 0 1 .7-18.17c-.57 2.76-1.2 5.5-2 8.17C674.21 574 658 581.4 648 591.09a1.13 1.13 0 0 1-1.6 0c-3.88-4.65-9.88-6.89-13.64-11.5-3-3.7-4.09-8.27-4.37-13-.14-2.32-.12-4.63 0-6.93-2.39 5.69-5.14 11.08-9.39 15.34a76 76 0 0 1-15.87 11.78c-4.27 2.47-9.34 4.53-14.34 3-7.77-2.38-16.4-7.51-17.76-16.2-1.79-11.44-.88-23.51.83-35.14-2.38 5.65-4.67 11.35-7.45 16.83-3.21 6.33-6.9 13.52-13.17 17.35a1.13 1.13 0 0 1-1.54-.41 19.91 19.91 0 0 1-1.83-10.55c-3.18 7.69-6.23 15.43-9.08 23.26a1.16 1.16 0 0 1-1.39.79c-5.77-1.26-11.21-3-17.19-2.22-.65.08-1.09-.57-1.13-1.13q-.75-9.66-2.44-19.17a208.94 208.94 0 0 0-3.77 23.12 1.14 1.14 0 0 1-2.22.3c-5-12.37-7.26-24.95-8-37.8a22.43 22.43 0 0 1-3.54 8.28c-2.85 3.89-6.17 7.38-7.74 12a1.17 1.17 0 0 1-1.09.83c-26.4 1.41-30.42-26.64-33.13-48.9a260.92 260.92 0 0 0-1.85 58.49 1.12 1.12 0 0 1-.83 1.09c-3.77 1.13-8.73 4.31-12.72 2.14s-5.65-7-9.59-9c-4.58-2.37-10.23-3.21-13.62-7.41-1-1.26-2-2.58-2.86-3.92a78.52 78.52 0 0 1-1.05 20.81 1.12 1.12 0 0 1-1.39.78c-7.78-2.11-16.38-4-23.18-8.52-5.87-3.93-7.06-11.81-10.36-17.95 2.4 10.25 5.19 19.87 1.15 30.51-2.36 6.22-7.54 9.36-12.88 12.4 3.68 2.1 7.39 4.16 11.2 6 3.9-.69 8-2.1 11.59-2.79 7.09-1.34 14.12-2.9 21.23-4.14 12.92-2.24 26-2.67 39.07-2.75 28.14-.15 56.52 0 84.46 3.56 25.15 3.2 48 14.57 73.07 18.35q7.14 1.07 14.26 1.64c5.4-5.25 35.82-21.68 39.12-23.46a230.27 230.27 0 0 1 52-20.78 294.55 294.55 0 0 1 62.03-8.59 104 104 0 0 1 25-17.09 48.44 48.44 0 0 0-12.93-2.39Z" transform="translate(-202.57 -417.82)" style="fill:#3b2009;opacity:.4;mix-blend-mode:multiply"/>
        </g>
    </g>
</svg>
