<svg width="46" height="48" viewBox="0 0 46 48" fill="none" xmlns="http://www.w3.org/2000/svg">
<path d="M13.01 7.85692C12.3969 6.79511 11.0313 6.42259 10.036 7.13856C6.69539 9.54158 4.07573 12.8358 2.48983 16.6645C0.619662 21.1795 0.291555 26.1854 1.5564 30.9059C2.82124 35.6263 5.60835 39.7975 9.48545 42.7725C13.3625 45.7476 18.113 47.3601 23 47.3601C27.8869 47.3601 32.6374 45.7476 36.5145 42.7725C40.3916 39.7975 43.1787 35.6263 44.4435 30.9059C45.7083 26.1854 45.3802 21.1795 43.5101 16.6645C41.9242 12.8358 39.3045 9.54159 35.9639 7.13856C34.9686 6.42259 33.603 6.79511 32.99 7.85692C32.3769 8.91873 32.7512 10.266 33.7283 11.0066C36.2305 12.9033 38.1964 15.4385 39.4081 18.3636C40.9042 21.9756 41.1667 25.9804 40.1548 29.7567C39.1429 33.5331 36.9132 36.8701 33.8116 39.2501C30.7099 41.6301 26.9095 42.9201 23 42.9201C19.0904 42.9201 15.29 41.6301 12.1883 39.2501C9.08667 36.8701 6.85698 33.5331 5.84511 29.7567C4.83323 25.9804 5.09572 21.9756 6.59185 18.3636C7.8035 15.4385 9.76942 12.9033 12.2716 11.0066C13.2487 10.266 13.623 8.91873 13.01 7.85692Z" fill="#6622CC"/>
<rect x="20.78" width="4.44" height="14.8" rx="2.22" fill="#6622CC"/>
</svg>
