<svg width="24" height="24" viewBox="0 0 24 24" fill="none" xmlns="http://www.w3.org/2000/svg">
<g clip-path="url(#clip0_439_1535)">
<path d="M23.437 10.4869L14.939 1.29992C14.5645 0.894699 14.1102 0.57135 13.6046 0.350203C13.0991 0.129055 12.5533 0.0148926 12.0015 0.0148926C11.4497 0.0148926 10.9039 0.129055 10.3984 0.350203C9.89283 0.57135 9.43852 0.894699 9.064 1.29992L0.581 10.4839C0.208713 10.8587 -0.000155505 11.3656 8.68665e-08 11.8939V20.9999C8.68665e-08 21.7956 0.316071 22.5586 0.87868 23.1212C1.44129 23.6838 2.20435 23.9999 3 23.9999H7V17.9999C7.00335 17.1017 7.24932 16.2211 7.71192 15.4512C8.17451 14.6812 8.83653 14.0506 9.628 13.6259C9.678 13.5979 9.728 13.5699 9.78 13.5429C9.96671 13.4499 10.1591 13.3687 10.356 13.2999C10.491 13.2509 10.628 13.2089 10.769 13.1719C10.91 13.1349 11.08 13.1019 11.24 13.0719C11.328 13.0579 11.41 13.0279 11.5 13.0189C11.654 13.0039 11.8 13.0009 11.955 12.9999C11.971 12.9999 11.985 12.9949 12 12.9949H12.018C12.3275 12.9973 12.6362 13.0284 12.94 13.0879C12.974 13.0949 13.008 13.0979 13.04 13.1049C13.325 13.1672 13.6041 13.2542 13.874 13.3649C13.912 13.3799 13.95 13.3939 13.988 13.4109C14.2462 13.523 14.4945 13.6568 14.73 13.8109L14.841 13.8849C15.0696 14.0438 15.2847 14.2215 15.484 14.4159C15.516 14.4469 15.546 14.4779 15.577 14.5099C15.7722 14.7104 15.9508 14.9265 16.111 15.1559L16.179 15.2559C16.3364 15.4949 16.4732 15.7468 16.588 16.0089C16.601 16.0409 16.612 16.0729 16.625 16.1089C16.7393 16.3853 16.8283 16.6715 16.891 16.9639C16.891 16.9859 16.898 17.0089 16.902 17.0309C16.9663 17.3499 16.9991 17.6745 17 17.9999V23.9999H21C21.7956 23.9999 22.5587 23.6838 23.1213 23.1212C23.6839 22.5586 24 21.7956 24 20.9999V11.8789C24.0002 11.3594 23.7983 10.8602 23.437 10.4869Z" fill="#6622CC"/>
<path d="M12 15C11.2044 15 10.4413 15.3161 9.87868 15.8787C9.31607 16.4413 9 17.2044 9 18V24H15V18C15 17.2044 14.6839 16.4413 14.1213 15.8787C13.5587 15.3161 12.7956 15 12 15Z" fill="#6622CC"/>
</g>
<defs>
<clipPath id="clip0_439_1535">
<rect width="24" height="24" fill="white"/>
</clipPath>
</defs>
</svg>
