<svg width="30" height="30" viewBox="0 0 30 30" fill="none" xmlns="http://www.w3.org/2000/svg">
<g clip-path="url(#clip0_657_655)">
<path d="M5.05375 10.0887C5.625 0.7075 10.8825 0.0325 11.125 0.0075C11.1665 0.00274143 11.2082 0.000237754 11.25 0C12.3335 0.0430721 13.3816 0.397652 14.2688 1.02125C14.4829 1.17244 14.7385 1.25362 15.0006 1.25362C15.2627 1.25362 15.5184 1.17244 15.7325 1.02125C16.6191 0.397623 17.6669 0.0430287 18.75 0C18.7939 6.10251e-06 18.8377 0.00251016 18.8812 0.0075C19.1175 0.0325 24.3813 0.7075 24.9463 10.0887C24.959 10.2814 24.9107 10.4732 24.8081 10.6369C24.7056 10.8005 24.554 10.9275 24.375 11C21.3721 12.085 18.1915 12.5939 15 12.5C11.8085 12.5938 8.62792 12.0849 5.625 11C5.446 10.9275 5.29442 10.8005 5.19186 10.6369C5.08929 10.4732 5.04096 10.2814 5.05375 10.0887ZM28.3663 12.4862C28.1794 12.3552 27.9584 12.2813 27.7302 12.2735C27.5021 12.2657 27.2766 12.3245 27.0813 12.4425C25.705 13.25 21.9225 15 15 15C8.0775 15 4.29625 13.25 2.91875 12.4425C2.72337 12.3245 2.49789 12.2657 2.26975 12.2735C2.04161 12.2813 1.82065 12.3552 1.63375 12.4862C1.18177 12.7459 0.797951 13.1092 0.513906 13.5462C0.229861 13.9833 0.0537214 14.4815 0 15C0 19.6125 7.7425 20 15 20C22.2575 20 30 19.6125 30 15C29.9463 14.4815 29.7701 13.9833 29.4861 13.5462C29.202 13.1092 28.8182 12.7459 28.3663 12.4862ZM20.625 21.25C19.7575 21.251 18.9099 21.5099 18.1899 21.9938C17.4698 22.4777 16.9099 23.1647 16.5813 23.9675C15.547 23.6775 14.453 23.6775 13.4187 23.9675C13.0197 23 12.2865 22.208 11.3527 21.7356C10.4188 21.2632 9.34643 21.1419 8.33063 21.3936C7.31483 21.6454 6.4232 22.2535 5.81802 23.1073C5.21285 23.9611 4.93437 25.0038 5.03328 26.0456C5.13218 27.0875 5.6019 28.0592 6.35692 28.7838C7.11195 29.5085 8.10208 29.938 9.1471 29.9941C10.1921 30.0502 11.2225 29.7292 12.0508 29.0895C12.8791 28.4498 13.4501 27.534 13.66 26.5088C14.0905 26.3533 14.5426 26.266 15 26.25C15.4574 26.2659 15.9095 26.3532 16.34 26.5088C16.5071 27.3191 16.9007 28.0655 17.4749 28.6612C18.0491 29.2569 18.7805 29.6776 19.5842 29.8744C20.3879 30.0712 21.2309 30.0361 22.0154 29.7731C22.7999 29.5101 23.4938 29.0301 24.0164 28.3886C24.5391 27.7472 24.8692 26.9706 24.9683 26.1492C25.0674 25.3277 24.9316 24.495 24.5765 23.7476C24.2215 23.0002 23.6617 22.3689 22.9623 21.9268C22.2629 21.4847 21.4524 21.25 20.625 21.25Z" fill="#FFDC42"/>
</g>
<defs>
<clipPath id="clip0_657_655">
<rect width="30" height="30" fill="white"/>
</clipPath>
</defs>
</svg>
