<svg id="Layer_1" data-name="Layer 1" xmlns="http://www.w3.org/2000/svg" viewBox="0 0 811.16 58.76"><defs><style>.cls-1{fill:#3a1e0c;}.cls-2{fill:#593318;}.cls-3{fill:#9c673f;}.cls-4{fill:#613c23;}.cls-5{fill:#6a371a;}</style></defs><title>line</title><polygon class="cls-1" points="800.27 10.93 795.9 9.82 787.9 8.74 779.91 8.53 771.91 1.74 763.91 5.71 755.91 10.93 747.91 2.65 739.92 8.89 731.92 12.35 723.93 9.23 715.93 14.04 707.93 7.43 699.93 3.65 691.94 13.19 683.94 2.07 675.95 5.79 667.95 0 659.96 13.93 651.96 11.14 643.97 1.02 635.97 6.56 627.97 9.71 619.97 1.11 611.97 8.88 603.98 7.84 595.98 6.18 587.99 3.17 579.99 8.84 571.99 15.07 563.99 9.77 555.99 9.79 548 2.47 540 10.82 532 8.67 524.01 7.2 516.01 7.76 508.01 11.45 500.01 8.1 492.01 6.88 484.01 11.82 476.01 11.82 468.02 2.14 460.02 4.59 452.01 8.52 444.02 0.74 436.02 12.71 428.02 11.45 420.02 15.48 412.02 3.78 404.02 14.28 396.02 5.53 388.02 5.04 380.02 5.76 372.02 2.65 364.02 12.46 356.02 11.58 348.02 13.68 340.02 10.48 332.02 3.61 324.02 13.76 316.02 0.2 308.02 7.88 300.01 12.29 292.01 14.16 284.01 4.66 276.01 2.7 268.01 12.44 260.01 10.88 252.01 3.66 244 7.03 236 8.37 228 11.45 220 4.07 212 8.24 203.99 8.1 196 7.75 188 2.74 180 11.28 172 8.63 164 14.23 156 9.53 147.99 2.57 139.99 1.8 131.99 8.15 123.99 2.09 115.98 14.09 107.98 1.17 99.98 2.12 91.97 8.97 83.97 10.12 75.96 2.41 67.96 7.61 59.95 13.46 51.95 15.09 43.95 5.77 35.94 7.86 27.93 2.73 19.93 13.14 11.91 13.01 0.31 4.25 11.1 16.23 2.15 24.89 11.78 33.55 0 42.21 6.85 48.14 11.9 43.98 19.9 44.98 27.9 48.12 35.9 51.24 43.9 44.81 51.9 54.38 59.89 52.88 67.89 51.57 75.88 44.09 83.88 49.45 91.88 57.27 99.88 48.23 107.87 47.05 115.87 58.6 123.86 46.82 131.86 55.98 139.85 45.16 147.85 57.73 155.84 55.6 163.84 47.8 171.84 45.05 179.84 57.52 187.84 44.11 195.83 53.55 203.83 49.66 211.82 52.23 219.82 53.19 227.81 48.72 235.81 53.34 243.81 53.45 251.81 51.56 259.81 45.05 267.81 56.21 275.8 56.32 283.8 54.48 291.8 50.25 299.8 47.43 307.8 49.69 315.8 42.94 323.79 52.48 331.79 58.76 339.79 45.79 347.79 52.99 355.79 49.09 363.79 46.02 371.79 48.87 379.79 44.68 387.79 51 395.79 51.8 403.79 50.25 411.78 48.02 419.78 50.36 427.79 55.16 435.79 49.44 443.79 51.59 451.79 42.89 459.79 57.51 467.79 44.61 475.79 51.26 483.79 44.48 491.79 50.46 499.79 56.12 507.79 44.47 515.79 49.47 523.79 46.96 531.79 46.48 539.8 51.58 547.8 46.15 555.8 45.28 563.8 56.29 571.8 45.88 579.8 53.03 587.81 43.34 595.81 51.64 603.81 49.64 611.81 51.26 619.81 52.89 627.81 58.47 635.81 53.78 643.81 48.81 651.81 55.06 659.81 47.44 667.81 50.63 675.82 55.85 683.82 54.69 691.82 48.73 699.83 45.24 707.83 46.87 715.83 47.04 723.84 56.29 731.84 46.9 739.85 57.02 747.85 54.37 755.86 57.13 763.86 50.1 771.87 56.1 779.87 45.82 787.88 49.04 795.89 54.71 804.65 51.56 811.16 42.21 799.24 33.56 807.71 24.9 803.15 16.43 800.27 10.93"/><path class="cls-2" d="M464.58,499.34c6.6,2.22,14,6.5,14.9,13.76a99.13,99.13,0,0,1-75.66,5.1c-2-.66-4.29-1.77-4.68-3.94s1.42-4,3.11-5.23C421.66,494.68,441.17,491.46,464.58,499.34Z" transform="translate(-143.1 -473.28)"/><path class="cls-3" d="M468.28,504.28c-17.71-7.52-46.87-9.8-61.3,4.23C401.67,513.68,483.13,510.57,468.28,504.28Z" transform="translate(-143.1 -473.28)"/><path class="cls-3" d="M778.68,501.37c4.31,1.45,9.12,4.25,9.73,9A64.75,64.75,0,0,1,739,513.69c-1.3-.44-2.8-1.16-3.05-2.57s.93-2.61,2-3.42C750.64,498.32,763.38,496.22,778.68,501.37Z" transform="translate(-143.1 -473.28)"/><path class="cls-4" d="M781.1,504.59c-11.57-4.9-30.62-6.4-40.05,2.77C737.58,510.74,790.79,508.7,781.1,504.59Z" transform="translate(-143.1 -473.28)"/><path class="cls-2" d="M543.52,500.38c4.94.82,10.66,2.93,12.17,7.64-15,10-34.35,14-53.05,10.9-1.49-.25-3.25-.75-3.78-2.15s.54-2.79,1.59-3.78C512.54,501.55,526,497.48,543.52,500.38Z" transform="translate(-143.1 -473.28)"/><path class="cls-4" d="M546.72,503.29c-13.43-3.23-34.38-1.85-43,8.89C500.59,516.13,558,506,546.72,503.29Z" transform="translate(-143.1 -473.28)"/><path class="cls-2" d="M346.05,490.61a50,50,0,0,1,30.69.8c-5,6.68-10.21,13.35-16.62,18.92s-14.19,10-22.82,11.5c-4.33.74-23.95.59-23.26-6.52a5.94,5.94,0,0,1,1.44-2.86C322.71,503.12,334.17,494.16,346.05,490.61Z" transform="translate(-143.1 -473.28)"/><path class="cls-4" d="M320.31,512.44c-3.79,0,13.53-22.93,47.29-21.43C376.74,491.41,335.3,512.55,320.31,512.44Z" transform="translate(-143.1 -473.28)"/><path class="cls-3" d="M680.19,496.11s14.82,7.41,13.89,13.43-15.74,8.33-27.32,4.16S666.76,488.24,680.19,496.11Z" transform="translate(-143.1 -473.28)"/><path class="cls-3" d="M401.4,485.72s14.82,7.41,13.89,13.43-15.74,8.33-27.32,4.16S388,477.85,401.4,485.72Z" transform="translate(-143.1 -473.28)"/><path class="cls-3" d="M516,485.41s10.85,6.1,10.17,11.06-11.53,6.86-20,3.43S506.18,478.94,516,485.41Z" transform="translate(-143.1 -473.28)"/><path class="cls-3" d="M912.22,499.57S927,507,926.11,513s-15.74,8.34-27.32,4.17S898.8,491.7,912.22,499.57Z" transform="translate(-143.1 -473.28)"/><path class="cls-3" d="M607.33,495.8s7.66,6.1,7.18,11.05-8.13,6.87-14.12,3.44S600.4,489.32,607.33,495.8Z" transform="translate(-143.1 -473.28)"/><path class="cls-5" d="M628.81,495.38s5.4,4.31,5.06,7.8-5.73,4.84-10,2.42S623.92,490.81,628.81,495.38Z" transform="translate(-143.1 -473.28)"/><path class="cls-3" d="M361.45,504.46s7.65,6.1,7.17,11.05-8.13,6.86-14.11,3.43S354.51,498,361.45,504.46Z" transform="translate(-143.1 -473.28)"/><path class="cls-3" d="M737.2,487.14s7.66,6.11,7.18,11.06-8.13,6.86-14.12,3.43S730.27,480.67,737.2,487.14Z" transform="translate(-143.1 -473.28)"/><path class="cls-3" d="M848.45,493.06s10.83,7.79,10.15,14.1-11.5,8.75-20,4.38S838.64,484.8,848.45,493.06Z" transform="translate(-143.1 -473.28)"/><path class="cls-3" d="M878.22,483.7s6.85,4.8,6.42,8.68-7.28,5.39-12.64,2.69S872,478.62,878.22,483.7Z" transform="translate(-143.1 -473.28)"/><path class="cls-3" d="M285.75,511s-5.77,10.85-10.22,10-5.89-11.83-2.59-20.35S291.84,501.19,285.75,511Z" transform="translate(-143.1 -473.28)"/><path class="cls-3" d="M184.66,491s15.27-1,17.33,4.25-8.68,14-19.86,16S170.29,491,184.66,491Z" transform="translate(-143.1 -473.28)"/><path class="cls-5" d="M556.91,500.23s-2.07,19.95,8.73,17.86,17.87-7.9,10-17.45S558.16,487.35,556.91,500.23Z" transform="translate(-143.1 -473.28)"/><path class="cls-5" d="M588,484.51s-7.63,3.6-4.53,7,6.75,4.71,8.46-.21S592.92,482.15,588,484.51Z" transform="translate(-143.1 -473.28)"/><path class="cls-3" d="M252.08,496.63s-7.63,3.6-4.53,7,6.74,4.72,8.46-.21S257,494.27,252.08,496.63Z" transform="translate(-143.1 -473.28)"/><path class="cls-5" d="M711,494.9s-7.64,3.6-4.53,7,6.74,4.71,8.46-.21S715.86,492.54,711,494.9Z" transform="translate(-143.1 -473.28)"/><path class="cls-5" d="M225.72,492.55s-12.7,6.25-7.4,11.92,11.43,7.72,14.18-.59S233.89,488.46,225.72,492.55Z" transform="translate(-143.1 -473.28)"/><path class="cls-5" d="M300.18,499.47s-12.7,6.25-7.4,11.92,11.43,7.72,14.18-.59S308.35,495.38,300.18,499.47Z" transform="translate(-143.1 -473.28)"/><path class="cls-5" d="M487.19,492.55s-12.7,6.25-7.4,11.92,11.43,7.72,14.18-.59S495.36,488.46,487.19,492.55Z" transform="translate(-143.1 -473.28)"/><path class="cls-5" d="M805.81,496s-12.7,6.25-7.41,11.92,11.44,7.72,14.18-.59S814,491.92,805.81,496Z" transform="translate(-143.1 -473.28)"/><path class="cls-5" d="M854,501.78s-8.32,4.09-4.85,7.8,7.48,5.05,9.28-.39S859.36,499.1,854,501.78Z" transform="translate(-143.1 -473.28)"/><path class="cls-5" d="M897.31,507s-8.32,4.09-4.85,7.81,7.48,5.05,9.28-.39S902.65,504.29,897.31,507Z" transform="translate(-143.1 -473.28)"/><path class="cls-5" d="M931.94,489.66s-8.32,4.09-4.85,7.8,7.49,5.05,9.28-.39S937.29,487,931.94,489.66Z" transform="translate(-143.1 -473.28)"/><path class="cls-5" d="M658.91,497.13c4.11-.69,7.3,3,5.31,9.62s-15.07,8.84-15.93,1S654.81,497.82,658.91,497.13Z" transform="translate(-143.1 -473.28)"/></svg>