<svg id="Layer_1" data-name="Layer 1" xmlns="http://www.w3.org/2000/svg" viewBox="0 0 811.16 58.76">
    <defs>
        <style>
            .cls-2{fill:#593318}.cls-3{fill:#9c673f}.cls-4{fill:#613c23}.cls-5{fill:#6a371a}
        </style>
    </defs>
    <path style="fill:#3a1e0c"
        d="m 800.27 10.93 l -4.37 -1.11 l -8 -1.08 l -7.99 -0.21 l -8 -6.79 l -8 3.97 l -8 5.22 l -8 -8.28 l -7.99 6.24 l -8 3.46 l -7.99 -3.12 l -8 4.81 l -8 -6.61 l -8 -3.78 l -7.99 9.54 l -8 -11.12 l -7.99 3.72 l -8 -5.79 l -7.99 13.93 l -8 -2.79 l -7.99 -10.12 l -8 5.54 l -8 3.15 l -8 -8.6 l -8 7.77 l -7.99 -1.04 l -8 -1.66 l -7.99 -3.01 l -8 5.67 l -8 6.23 l -8 -5.3 l -8 0.02 l -7.99 -7.32 l -8 8.35 l -8 -2.15 l -7.99 -1.47 l -8 0.56 l -8 3.69 l -8 -3.35 l -8 -1.22 l -8 4.94 h -8 l -7.99 -9.68 l -8 2.45 l -8.01 3.93 l -7.99 -7.78 l -8 11.97 l -8 -1.26 l -8 4.03 l -8 -11.7 l -8 10.5 l -8 -8.75 l -8 -0.49 l -8 0.72 l -8 -3.11 l -8 9.81 l -8 -0.88 l -8 2.1 l -8 -3.2 l -8 -6.87 l -8 10.15 l -8 -13.56 l -8 7.68 l -8.01 4.41 l -8 1.87 l -8 -9.5 l -8 -1.96 l -8 9.74 l -8 -1.56 l -8 -7.22 l -8.01 3.37 l -8 1.34 l -8 3.08 l -8 -7.38 l -8 4.17 l -8.01 -0.14 l -7.99 -0.35 l -8 -5.01 l -8 8.54 l -8 -2.65 l -8 5.6 l -8 -4.7 l -8.01 -6.96 l -8 -0.77 l -8 6.35 l -8 -6.06 l -8.01 12 l -8 -12.92 l -8 0.95 l -8.01 6.85 l -8 1.15 l -8.01 -7.71 l -8 5.2 l -8.01 5.85 l -8 1.63 l -8 -9.32 l -8.01 2.09 l -8.01 -5.13 l -8 10.41 l -8.02 -0.13 l -11.6 -8.76 l 10.79 11.98 l -8.95 8.66 l 9.63 8.66 l -11.78 8.66 l 6.85 5.93 l 5.05 -4.16 l 8 1 l 8 3.14 l 8 3.12 l 8 -6.43 l 8 9.57 l 7.99 -1.5 l 8 -1.31 l 7.99 -7.48 l 8 5.36 l 8 7.82 l 8 -9.04 l 7.99 -1.18 l 8 11.55 l 7.99 -11.78 l 8 9.16 l 7.99 -10.82 l 8 12.57 l 7.99 -2.13 l 8 -7.8 l 8 -2.75 l 8 12.47 l 8 -13.41 l 7.99 9.44 l 8 -3.89 l 7.99 2.57 l 8 0.96 l 7.99 -4.47 l 8 4.62 l 8 0.11 l 8 -1.89 l 8 -6.51 l 8 11.16 l 7.99 0.11 l 8 -1.84 l 8 -4.23 l 8 -2.82 l 8 2.26 l 8 -6.75 l 7.99 9.54 l 8 6.28 l 8 -12.97 l 8 7.2 l 8 -3.9 l 8 -3.07 l 8 2.85 l 8 -4.19 l 8 6.32 l 8 0.8 l 8 -1.55 l 7.99 -2.23 l 8 2.34 l 8.01 4.8 l 8 -5.72 l 8 2.15 l 8 -8.7 l 8 14.62 l 8 -12.9 l 8 6.65 l 8 -6.78 l 8 5.98 l 8 5.66 l 8 -11.65 l 8 5 l 8 -2.51 l 8 -0.48 l 8.01 5.1 l 8 -5.43 l 8 -0.87 l 8 11.01 l 8 -10.41 l 8 7.15 l 8.01 -9.69 l 8 8.3 l 8 -2 l 8 1.62 l 8 1.63 l 8 5.58 l 8 -4.69 l 8 -4.97 l 8 6.25 l 8 -7.62 l 8 3.19 l 8.01 5.22 l 8 -1.16 l 8 -5.96 l 8.01 -3.49 l 8 1.63 l 8 0.17 l 8.01 9.25 l 8 -9.39 l 8.01 10.12 l 8 -2.65 l 8.01 2.76 l 8 -7.03 l 8.01 6 l 8 -10.28 l 8.01 3.22 l 8.01 5.67 l 8.76 -3.15 l 6.51 -9.35 l -11.92 -8.65 l 8.47 -8.66 l -4.56 -8.47 l -2.88 -5.5 z" />
    <path class="cls-2"
        d="M464.58 499.34c6.6 2.22 14 6.5 14.9 13.76a99.13 99.13 0 0 1-75.66 5.1c-2-.66-4.29-1.77-4.68-3.94s1.42-4 3.11-5.23c19.41-14.35 38.92-17.57 62.33-9.69Z"
        transform="translate(-143.1 -473.28)" />
    <path class="cls-3"
        d="M468.28 504.28c-17.71-7.52-46.87-9.8-61.3 4.23-5.31 5.17 76.15 2.06 61.3-4.23ZM778.68 501.37c4.31 1.45 9.12 4.25 9.73 9a64.75 64.75 0 0 1-49.41 3.32c-1.3-.44-2.8-1.16-3.05-2.57s.93-2.61 2-3.42c12.69-9.38 25.43-11.48 40.73-6.33Z"
        transform="translate(-143.1 -473.28)" />
    <path class="cls-4"
        d="M781.1 504.59c-11.57-4.9-30.62-6.4-40.05 2.77-3.47 3.38 49.74 1.34 40.05-2.77Z"
        transform="translate(-143.1 -473.28)" />
    <path class="cls-2"
        d="M543.52 500.38c4.94.82 10.66 2.93 12.17 7.64-15 10-34.35 14-53.05 10.9-1.49-.25-3.25-.75-3.78-2.15s.54-2.79 1.59-3.78c12.09-11.44 25.55-15.51 43.07-12.61Z"
        transform="translate(-143.1 -473.28)" />
    <path class="cls-4"
        d="M546.72 503.29c-13.43-3.23-34.38-1.85-43 8.89-3.13 3.95 54.28-6.18 43-8.89Z"
        transform="translate(-143.1 -473.28)" />
    <path class="cls-2"
        d="M346.05 490.61a50 50 0 0 1 30.69.8c-5 6.68-10.21 13.35-16.62 18.92s-14.19 10-22.82 11.5c-4.33.74-23.95.59-23.26-6.52a5.94 5.94 0 0 1 1.44-2.86c7.23-9.33 18.69-18.29 30.57-21.84Z"
        transform="translate(-143.1 -473.28)" />
    <path class="cls-4"
        d="M320.31 512.44c-3.79 0 13.53-22.93 47.29-21.43 9.14.4-32.3 21.54-47.29 21.43Z"
        transform="translate(-143.1 -473.28)" />
    <path class="cls-3"
        d="M680.19 496.11s14.82 7.41 13.89 13.43-15.74 8.33-27.32 4.16 0-25.46 13.43-17.59ZM401.4 485.72s14.82 7.41 13.89 13.43-15.74 8.33-27.32 4.16.03-25.46 13.43-17.59ZM516 485.41s10.85 6.1 10.17 11.06-11.53 6.86-20 3.43.01-20.96 9.83-14.49ZM912.22 499.57S927 507 926.11 513s-15.74 8.34-27.32 4.17.01-25.47 13.43-17.6ZM607.33 495.8s7.66 6.1 7.18 11.05-8.13 6.87-14.12 3.44.01-20.97 6.94-14.49Z"
        transform="translate(-143.1 -473.28)" />
    <path class="cls-5" d="M628.81 495.38s5.4 4.31 5.06 7.8-5.73 4.84-10 2.42.05-14.79 4.94-10.22Z"
        transform="translate(-143.1 -473.28)" />
    <path class="cls-3"
        d="M361.45 504.46s7.65 6.1 7.17 11.05-8.13 6.86-14.11 3.43 0-20.94 6.94-14.48ZM737.2 487.14s7.66 6.11 7.18 11.06-8.13 6.86-14.12 3.43.01-20.96 6.94-14.49ZM848.45 493.06s10.83 7.79 10.15 14.1-11.5 8.75-20 4.38.04-26.74 9.85-18.48ZM878.22 483.7s6.85 4.8 6.42 8.68-7.28 5.39-12.64 2.69 0-16.45 6.22-11.37ZM285.75 511s-5.77 10.85-10.22 10-5.89-11.83-2.59-20.35 18.9.54 12.81 10.35ZM184.66 491s15.27-1 17.33 4.25-8.68 14-19.86 16S170.29 491 184.66 491Z"
        transform="translate(-143.1 -473.28)" />
    <path class="cls-5"
        d="M556.91 500.23s-2.07 19.95 8.73 17.86 17.87-7.9 10-17.45-17.48-13.29-18.73-.41ZM588 484.51s-7.63 3.6-4.53 7 6.75 4.71 8.46-.21.99-9.15-3.93-6.79Z"
        transform="translate(-143.1 -473.28)" />
    <path class="cls-3" d="M252.08 496.63s-7.63 3.6-4.53 7 6.74 4.72 8.46-.21.99-9.15-3.93-6.79Z"
        transform="translate(-143.1 -473.28)" />
    <path class="cls-5"
        d="M711 494.9s-7.64 3.6-4.53 7 6.74 4.71 8.46-.21.93-9.15-3.93-6.79ZM225.72 492.55s-12.7 6.25-7.4 11.92 11.43 7.72 14.18-.59 1.39-15.42-6.78-11.33ZM300.18 499.47s-12.7 6.25-7.4 11.92 11.43 7.72 14.18-.59 1.39-15.42-6.78-11.33ZM487.19 492.55s-12.7 6.25-7.4 11.92 11.43 7.72 14.18-.59 1.39-15.42-6.78-11.33ZM805.81 496s-12.7 6.25-7.41 11.92 11.44 7.72 14.18-.59 1.42-15.41-6.77-11.33ZM854 501.78s-8.32 4.09-4.85 7.8 7.48 5.05 9.28-.39.93-10.09-4.43-7.41ZM897.31 507s-8.32 4.09-4.85 7.81 7.48 5.05 9.28-.39.91-10.13-4.43-7.42ZM931.94 489.66s-8.32 4.09-4.85 7.8 7.49 5.05 9.28-.39.92-10.07-4.43-7.41ZM658.91 497.13c4.11-.69 7.3 3 5.31 9.62s-15.07 8.84-15.93 1 6.52-9.93 10.62-10.62Z"
        transform="translate(-143.1 -473.28)" />
</svg>
