<svg width="57" height="25" viewBox="0 0 57 25" fill="none" xmlns="http://www.w3.org/2000/svg">
<path d="M53.9717 4.97739C53.6672 4.8375 53.3318 4.80073 53.0083 4.87176C52.6847 4.94279 52.3877 5.11841 52.155 5.37625L50 7.7529L46.1783 3.53817C45.8658 3.19358 45.4419 3 45 3C44.5581 3 44.1342 3.19358 43.8217 3.53817L40 7.7529L37.845 5.37625C37.6119 5.11927 37.315 4.94428 36.9917 4.87338C36.6685 4.80249 36.3334 4.83889 36.0289 4.97798C35.7244 5.11707 35.4641 5.3526 35.281 5.6548C35.0979 5.957 35.0001 6.3123 35 6.67578V16.4048C35.0013 17.6231 35.4407 18.791 36.2218 19.6525C37.003 20.5139 38.062 20.9985 39.1667 21H50.8333C51.938 20.9985 52.997 20.5139 53.7782 19.6525C54.5593 18.791 54.9987 17.6231 55 16.4048V6.67578C55.0001 6.31227 54.9024 5.9569 54.7194 5.65459C54.5364 5.35228 54.2761 5.11661 53.9717 4.97739Z" fill="url(#paint0_linear_459_1226)"/>
<path d="M6.36656 13.7578H3.40562V12.2031H6.36656C6.88219 12.2031 7.29885 12.1198 7.61656 11.9531C7.93427 11.7865 8.16604 11.5573 8.31187 11.2656C8.46292 10.9688 8.53844 10.6302 8.53844 10.25C8.53844 9.89062 8.46292 9.55469 8.31187 9.24219C8.16604 8.92448 7.93427 8.66927 7.61656 8.47656C7.29885 8.28385 6.88219 8.1875 6.36656 8.1875H4.00719V18H2.04625V6.625H6.36656C7.24677 6.625 7.99417 6.78125 8.60875 7.09375C9.22854 7.40104 9.6999 7.82812 10.0228 8.375C10.3457 8.91667 10.5072 9.53646 10.5072 10.2344C10.5072 10.9688 10.3457 11.599 10.0228 12.125C9.6999 12.651 9.22854 13.0547 8.60875 13.3359C7.99417 13.6172 7.24677 13.7578 6.36656 13.7578ZM13.6481 11.1562V18H11.7653V9.54688H13.5622L13.6481 11.1562ZM16.2341 9.49219L16.2184 11.2422C16.1039 11.2214 15.9789 11.2057 15.8434 11.1953C15.7132 11.1849 15.583 11.1797 15.4528 11.1797C15.1299 11.1797 14.846 11.2266 14.6012 11.3203C14.3565 11.4089 14.1507 11.5391 13.9841 11.7109C13.8226 11.8776 13.6976 12.0807 13.6091 12.3203C13.5205 12.5599 13.4684 12.8281 13.4528 13.125L13.0231 13.1562C13.0231 12.625 13.0752 12.1328 13.1794 11.6797C13.2835 11.2266 13.4398 10.8281 13.6481 10.4844C13.8617 10.1406 14.1273 9.8724 14.445 9.67969C14.7679 9.48698 15.1403 9.39062 15.5622 9.39062C15.6768 9.39062 15.7992 9.40104 15.9294 9.42188C16.0648 9.44271 16.1664 9.46615 16.2341 9.49219ZM16.5312 13.8672V13.6875C16.5312 13.0781 16.6198 12.513 16.7969 11.9922C16.974 11.4661 17.2292 11.0104 17.5625 10.625C17.901 10.2344 18.3125 9.93229 18.7969 9.71875C19.2865 9.5 19.8385 9.39062 20.4531 9.39062C21.0729 9.39062 21.625 9.5 22.1094 9.71875C22.599 9.93229 23.013 10.2344 23.3516 10.625C23.6901 11.0104 23.9479 11.4661 24.125 11.9922C24.3021 12.513 24.3906 13.0781 24.3906 13.6875V13.8672C24.3906 14.4766 24.3021 15.0417 24.125 15.5625C23.9479 16.0833 23.6901 16.5391 23.3516 16.9297C23.013 17.3151 22.6016 17.6172 22.1172 17.8359C21.6328 18.0495 21.0833 18.1562 20.4687 18.1562C19.849 18.1562 19.2943 18.0495 18.8047 17.8359C18.3203 17.6172 17.9089 17.3151 17.5703 16.9297C17.2318 16.5391 16.974 16.0833 16.7969 15.5625C16.6198 15.0417 16.5312 14.4766 16.5312 13.8672ZM18.4141 13.6875V13.8672C18.4141 14.2474 18.4531 14.6068 18.5312 14.9453C18.6094 15.2839 18.7318 15.5807 18.8984 15.8359C19.0651 16.0911 19.2786 16.2917 19.5391 16.4375C19.7995 16.5833 20.1094 16.6562 20.4687 16.6562C20.8177 16.6562 21.1198 16.5833 21.375 16.4375C21.6354 16.2917 21.849 16.0911 22.0156 15.8359C22.1823 15.5807 22.3047 15.2839 22.3828 14.9453C22.4661 14.6068 22.5078 14.2474 22.5078 13.8672V13.6875C22.5078 13.3125 22.4661 12.9583 22.3828 12.625C22.3047 12.2865 22.1797 11.987 22.0078 11.7266C21.8411 11.4661 21.6276 11.263 21.3672 11.1172C21.112 10.9661 20.8073 10.8906 20.4531 10.8906C20.099 10.8906 19.7917 10.9661 19.5312 11.1172C19.276 11.263 19.0651 11.4661 18.8984 11.7266C18.7318 11.987 18.6094 12.2865 18.5312 12.625C18.4531 12.9583 18.4141 13.3125 18.4141 13.6875Z" fill="url(#paint1_linear_459_1226)"/>
<defs>
<linearGradient id="paint0_linear_459_1226" x1="27.5" y1="-1.5" x2="61" y2="27.5" gradientUnits="userSpaceOnUse">
<stop stop-color="#FFD521"/>
<stop offset="1" stop-color="#F4BA0A"/>
</linearGradient>
<linearGradient id="paint1_linear_459_1226" x1="-9.375" y1="-6.25" x2="36.2102" y2="29.2656" gradientUnits="userSpaceOnUse">
<stop stop-color="#FFD521"/>
<stop offset="1" stop-color="#F4BA0A"/>
</linearGradient>
</defs>
</svg>
