<svg width="80" height="25" viewBox="0 0 80 25" fill="none" xmlns="http://www.w3.org/2000/svg">
<path d="M76.9717 4.97739C76.6672 4.8375 76.3318 4.80073 76.0083 4.87176C75.6847 4.94279 75.3877 5.11841 75.155 5.37625L73 7.7529L69.1783 3.53817C68.8658 3.19358 68.4419 3 68 3C67.5581 3 67.1342 3.19358 66.8217 3.53817L63 7.7529L60.845 5.37625C60.6119 5.11927 60.315 4.94428 59.9917 4.87338C59.6685 4.80249 59.3334 4.83889 59.0289 4.97798C58.7244 5.11707 58.4641 5.3526 58.281 5.6548C58.0979 5.957 58.0001 6.3123 58 6.67578V16.4048C58.0013 17.6231 58.4407 18.791 59.2218 19.6525C60.003 20.5139 61.062 20.9985 62.1667 21H73.8333C74.938 20.9985 75.997 20.5139 76.7782 19.6525C77.5593 18.791 77.9987 17.6231 78 16.4048V6.67578C78.0001 6.31227 77.9024 5.9569 77.7194 5.65459C77.5364 5.35228 77.2761 5.11661 76.9717 4.97739Z" fill="url(#paint0_linear_439_1527)"/>
<path d="M10.8031 16.5234C10.3917 17.0599 9.82135 17.4661 9.09219 17.7422C8.36302 18.0182 7.53489 18.1562 6.60781 18.1562C5.65469 18.1562 4.81094 17.9401 4.07656 17.5078C3.34219 17.0755 2.77448 16.4583 2.37344 15.6562C1.9776 14.849 1.77187 13.9089 1.75625 12.8359V11.9453C1.75625 10.2266 2.16771 8.88542 2.99062 7.92188C3.81354 6.95312 4.96198 6.46875 6.43594 6.46875C7.70156 6.46875 8.70677 6.78125 9.45156 7.40625C10.1964 8.03125 10.6443 8.93229 10.7953 10.1094H8.85781C8.63906 8.73958 7.84479 8.05469 6.475 8.05469C5.58958 8.05469 4.9151 8.375 4.45156 9.01562C3.99323 9.65104 3.75625 10.5859 3.74062 11.8203V12.6953C3.74062 13.9245 3.99844 14.8802 4.51406 15.5625C5.03489 16.2396 5.75625 16.5781 6.67812 16.5781C7.68854 16.5781 8.40729 16.349 8.83437 15.8906V13.6641H6.49062V12.1641H10.8031V16.5234ZM12.1159 13.6953C12.1159 12.8672 12.28 12.1224 12.6081 11.4609C12.9362 10.7943 13.3972 10.2839 13.9909 9.92969C14.5847 9.57031 15.267 9.39062 16.0378 9.39062C17.1784 9.39062 18.1029 9.75781 18.8112 10.4922C19.5248 11.2266 19.9102 12.2005 19.9675 13.4141L19.9753 13.8594C19.9753 14.6927 19.8139 15.4375 19.4909 16.0938C19.1732 16.75 18.7149 17.2578 18.1159 17.6172C17.5222 17.9766 16.8347 18.1562 16.0534 18.1562C14.8607 18.1562 13.905 17.7604 13.1862 16.9688C12.4727 16.1719 12.1159 15.112 12.1159 13.7891V13.6953ZM14.0144 13.8594C14.0144 14.7292 14.1941 15.4115 14.5534 15.9062C14.9128 16.3958 15.4128 16.6406 16.0534 16.6406C16.6941 16.6406 17.1915 16.3906 17.5456 15.8906C17.905 15.3906 18.0847 14.6589 18.0847 13.6953C18.0847 12.8411 17.8998 12.1641 17.53 11.6641C17.1654 11.1641 16.668 10.9141 16.0378 10.9141C15.418 10.9141 14.9258 11.1615 14.5612 11.6562C14.1967 12.1458 14.0144 12.8802 14.0144 13.8594ZM27.0853 13.7734V18H25.1087V6.625H29.4603C30.7311 6.625 31.739 6.95573 32.4837 7.61719C33.2337 8.27865 33.6087 9.15365 33.6087 10.2422C33.6087 11.3568 33.2416 12.224 32.5072 12.8438C31.778 13.4635 30.7546 13.7734 29.4369 13.7734H27.0853ZM27.0853 12.1875H29.4603C30.1634 12.1875 30.6999 12.0234 31.0697 11.6953C31.4395 11.362 31.6244 10.8828 31.6244 10.2578C31.6244 9.64323 31.4369 9.15365 31.0619 8.78906C30.6869 8.41927 30.1712 8.22917 29.515 8.21875H27.0853V12.1875ZM39.2653 11.2812C39.0153 11.2396 38.7575 11.2188 38.4919 11.2188C37.6221 11.2188 37.0361 11.5521 36.7341 12.2188V18H34.8356V9.54688H36.6481L36.695 10.4922C37.1533 9.75781 37.7887 9.39062 38.6012 9.39062C38.8721 9.39062 39.096 9.42708 39.2731 9.5L39.2653 11.2812ZM39.5078 13.6953C39.5078 12.8672 39.6719 12.1224 40 11.4609C40.3281 10.7943 40.7891 10.2839 41.3828 9.92969C41.9766 9.57031 42.6589 9.39062 43.4297 9.39062C44.5703 9.39062 45.4948 9.75781 46.2031 10.4922C46.9167 11.2266 47.3021 12.2005 47.3594 13.4141L47.3672 13.8594C47.3672 14.6927 47.2057 15.4375 46.8828 16.0938C46.5651 16.75 46.1068 17.2578 45.5078 17.6172C44.9141 17.9766 44.2266 18.1562 43.4453 18.1562C42.2526 18.1562 41.2969 17.7604 40.5781 16.9688C39.8646 16.1719 39.5078 15.112 39.5078 13.7891V13.6953ZM41.4062 13.8594C41.4062 14.7292 41.5859 15.4115 41.9453 15.9062C42.3047 16.3958 42.8047 16.6406 43.4453 16.6406C44.0859 16.6406 44.5833 16.3906 44.9375 15.8906C45.2969 15.3906 45.4766 14.6589 45.4766 13.6953C45.4766 12.8411 45.2917 12.1641 44.9219 11.6641C44.5573 11.1641 44.0599 10.9141 43.4297 10.9141C42.8099 10.9141 42.3177 11.1615 41.9531 11.6562C41.5885 12.1458 41.4062 12.8802 41.4062 13.8594Z" fill="url(#paint1_linear_439_1527)"/>
<defs>
<linearGradient id="paint0_linear_439_1527" x1="50.5" y1="-1.5" x2="84" y2="27.5" gradientUnits="userSpaceOnUse">
<stop stop-color="#B7970A"/>
<stop offset="1" stop-color="#FFD006"/>
</linearGradient>
<linearGradient id="paint1_linear_439_1527" x1="-18" y1="-6.25" x2="25.4421" y2="58.7342" gradientUnits="userSpaceOnUse">
<stop stop-color="#B7970A"/>
<stop offset="1" stop-color="#FFD006"/>
</linearGradient>
</defs>
</svg>
