<svg width="24" height="24" viewBox="0 0 24 24" fill="none" xmlns="http://www.w3.org/2000/svg">
<path d="M12 11.7959C14.7189 11.7959 16.9231 9.60303 16.9231 6.89796C16.9231 4.19289 14.7189 2 12 2C9.28104 2 7.0769 4.19289 7.0769 6.89796C7.0769 9.60303 9.28104 11.7959 12 11.7959Z" fill="#B5AEBE"/>
<path d="M14.5641 13.8369H9.4359C6.46154 13.8369 4 16.286 4 19.2451C4 19.9594 4.30769 20.5717 4.92308 20.8778C5.84615 21.388 7.89744 22.0001 12 22.0001C16.1026 22.0001 18.1538 21.388 19.0769 20.8778C19.5897 20.5717 20 19.9594 20 19.2451C20 16.1839 17.5385 13.8369 14.5641 13.8369Z" fill="#B5AEBE"/>
</svg>
