<svg width="30" height="30" viewBox="0 0 30 30" fill="none" xmlns="http://www.w3.org/2000/svg">
<g clip-path="url(#clip0_657_667)">
<path d="M29.1887 0.811276C28.8199 0.438382 28.3515 0.179432 27.8396 0.0652933C27.3276 -0.0488454 26.7936 -0.0133576 26.3012 0.167526L26.0312 0.263776C19.9851 2.23034 14.4807 5.57939 9.955 10.045C8.81923 11.2108 7.78584 12.4721 6.86625 13.815C5.11625 16.315 4.78375 19.0513 6.93375 21.2025L6.9825 21.25L4.11625 24.1163C3.88191 24.3507 3.75027 24.6686 3.75027 25C3.75027 25.3315 3.88191 25.6494 4.11625 25.8838C4.35066 26.1181 4.66854 26.2498 5 26.2498C5.33145 26.2498 5.64934 26.1181 5.88375 25.8838L8.75 23.0175L8.7975 23.0663C10.9487 25.2163 13.6912 24.8813 16.185 23.1338C17.5279 22.2142 18.7892 21.1808 19.955 20.045C24.4208 15.519 27.7699 10.0141 29.7362 3.96753L29.8325 3.69753C30.0134 3.20538 30.0489 2.67157 29.9348 2.15979C29.8207 1.64802 29.5617 1.17989 29.1887 0.811276ZM13.75 17.5C13.5028 17.5 13.2611 17.4267 13.0555 17.2894C12.85 17.152 12.6898 16.9568 12.5951 16.7284C12.5005 16.5 12.4758 16.2486 12.524 16.0062C12.5722 15.7637 12.6913 15.541 12.8661 15.3661C13.0409 15.1913 13.2637 15.0723 13.5061 15.024C13.7486 14.9758 13.9999 15.0006 14.2284 15.0952C14.4568 15.1898 14.652 15.35 14.7893 15.5556C14.9267 15.7611 15 16.0028 15 16.25C15 16.5815 14.8683 16.8995 14.6339 17.1339C14.3995 17.3683 14.0815 17.5 13.75 17.5ZM17.5 13.75C17.2528 13.75 17.0111 13.6767 16.8055 13.5394C16.6 13.402 16.4398 13.2068 16.3451 12.9784C16.2505 12.75 16.2258 12.4986 16.274 12.2562C16.3222 12.0137 16.4413 11.791 16.6161 11.6161C16.7909 11.4413 17.0137 11.3223 17.2561 11.274C17.4986 11.2258 17.7499 11.2506 17.9784 11.3452C18.2068 11.4398 18.402 11.6 18.5393 11.8056C18.6767 12.0111 18.75 12.2528 18.75 12.5C18.75 12.8315 18.6183 13.1495 18.3839 13.3839C18.1495 13.6183 17.8315 13.75 17.5 13.75ZM21.25 10C21.0028 10 20.7611 9.92671 20.5555 9.78936C20.35 9.65201 20.1898 9.45679 20.0951 9.22838C20.0005 8.99997 19.9758 8.74864 20.024 8.50616C20.0722 8.26369 20.1913 8.04096 20.3661 7.86614C20.5409 7.69133 20.7637 7.57228 21.0061 7.52404C21.2486 7.47581 21.4999 7.50057 21.7284 7.59518C21.9568 7.68979 22.152 7.85 22.2893 8.05556C22.4267 8.26113 22.5 8.5028 22.5 8.75003C22.5 9.08155 22.3683 9.39949 22.1339 9.63391C21.8995 9.86833 21.5815 10 21.25 10ZM2.95375 16.2975C2.56592 16.2977 2.18185 16.2214 1.82349 16.0731C1.46513 15.9248 1.13951 15.7074 0.865209 15.4332C0.590912 15.159 0.37332 14.8335 0.224865 14.4752C0.07641 14.1169 -3.4758e-08 13.7329 0 13.345C0.00302173 12.575 0.30042 11.8353 0.83125 11.2775C2.96669 9.08234 5.84855 7.769 8.90625 7.59753C8.6675 7.82503 8.42375 8.04128 8.1875 8.27753C6.94957 9.5446 5.82253 10.9155 4.81875 12.375C3.97462 13.5445 3.38681 14.879 3.09375 16.2913L2.95375 16.2975ZM13.75 26.9063C15.1624 26.6138 16.497 26.0259 17.6662 25.1813C19.1282 24.1781 20.5012 23.051 21.77 21.8125C22.0075 21.5763 22.2225 21.3325 22.4512 21.0938C22.2787 24.1515 20.965 27.0331 18.77 29.1688C18.2127 29.6996 17.4734 29.9971 16.7037 30C15.9204 30 15.1691 29.6888 14.6151 29.1349C14.0612 28.581 13.75 27.8297 13.75 27.0463V26.9063Z" fill="#FFD964"/>
</g>
<defs>
<clipPath id="clip0_657_667">
<rect width="30" height="30" fill="white"/>
</clipPath>
</defs>
</svg>
