<svg width="24" height="24" viewBox="0 0 24 24" fill="none" xmlns="http://www.w3.org/2000/svg">
<path d="M1.60704 18C1.80387 18.3416 2.06609 18.6411 2.37872 18.8812C2.69136 19.1214 3.04827 19.2976 3.42905 19.3998C3.80983 19.502 4.20701 19.5281 4.59788 19.4766C4.98876 19.4252 5.36566 19.2972 5.70704 19.1L6.15204 18.843C6.99205 19.5617 7.95758 20.119 9.00004 20.487V21C9.00004 21.7956 9.31611 22.5587 9.87872 23.1213C10.4413 23.6839 11.2044 24 12 24C12.7957 24 13.5588 23.6839 14.1214 23.1213C14.684 22.5587 15 21.7956 15 21V20.487C16.0427 20.1184 17.0082 19.5604 17.848 18.841L18.295 19.099C18.9846 19.4968 19.804 19.6044 20.5729 19.3981C21.3418 19.1918 21.9972 18.6886 22.395 17.999C22.7929 17.3094 22.9005 16.4901 22.6942 15.7212C22.4879 14.9523 21.9846 14.2968 21.295 13.899L20.851 13.643C21.0509 12.5554 21.0509 11.4406 20.851 10.353L21.295 10.097C21.6365 9.90002 21.9358 9.63771 22.1758 9.32506C22.4159 9.01241 22.592 8.65554 22.6942 8.27482C22.7963 7.8941 22.8225 7.49699 22.7712 7.10616C22.7198 6.71533 22.592 6.33844 22.395 5.997C22.1981 5.65556 21.9358 5.35627 21.6231 5.1162C21.3105 4.87614 20.9536 4.70001 20.5729 4.59786C20.1921 4.49572 19.795 4.46956 19.4042 4.52089C19.0134 4.57221 18.6365 4.70002 18.295 4.897L17.85 5.154C17.0092 4.43617 16.043 3.87983 15 3.513V3C15 2.20435 14.684 1.44129 14.1214 0.87868C13.5588 0.31607 12.7957 0 12 0C11.2044 0 10.4413 0.31607 9.87872 0.87868C9.31611 1.44129 9.00004 2.20435 9.00004 3V3.513C7.95743 3.88157 6.99189 4.4396 6.15204 5.159L5.70504 4.9C5.01548 4.50218 4.19612 4.39457 3.42723 4.60086C2.65833 4.80715 2.00287 5.31044 1.60504 6C1.20722 6.68956 1.09962 7.50892 1.30591 8.27782C1.5122 9.04672 2.01548 9.70218 2.70504 10.1L3.14904 10.356C2.94915 11.4436 2.94915 12.5584 3.14904 13.646L2.70504 13.902C2.01724 14.301 1.51553 14.9562 1.30974 15.7242C1.10395 16.4923 1.21085 17.3106 1.60704 18ZM12 8C12.7912 8 13.5645 8.2346 14.2223 8.67412C14.8801 9.11365 15.3928 9.73836 15.6956 10.4693C15.9983 11.2002 16.0775 12.0044 15.9232 12.7804C15.7688 13.5563 15.3879 14.269 14.8285 14.8284C14.2691 15.3878 13.5563 15.7688 12.7804 15.9231C12.0045 16.0775 11.2002 15.9983 10.4693 15.6955C9.7384 15.3928 9.11369 14.8801 8.67416 14.2223C8.23464 13.5645 8.00004 12.7911 8.00004 12C8.00004 10.9391 8.42147 9.92172 9.17162 9.17157C9.92176 8.42143 10.9392 8 12 8Z" fill="#B5AEBE"/>
</svg>
