<svg width="24" height="24" viewBox="0 0 24 24" fill="none" xmlns="http://www.w3.org/2000/svg">
<g clip-path="url(#clip0_1097_181)">
<path d="M21.7906 9.0375H21.2811C21.1155 8.51953 20.9067 8.01638 20.6565 7.53295L21.0174 7.17211C21.8923 6.29813 21.8689 4.8975 21.0177 4.04719L19.9531 2.98266C19.1033 2.13173 17.7024 2.10708 16.8282 2.98233L16.467 3.34345C15.9836 3.09333 15.4804 2.88445 14.9625 2.71894V2.20936C14.9625 0.991125 13.9714 0 12.7531 0H11.2469C10.0286 0 9.0375 0.991125 9.0375 2.20936V2.71894C8.51958 2.88441 8.01638 3.09328 7.53295 3.34345L7.17216 2.98266C6.29967 2.10914 4.89881 2.12963 4.04728 2.98238L2.98261 4.04695C2.13173 4.89689 2.10713 6.29761 2.98233 7.17188L3.34345 7.533C3.09328 8.01642 2.88445 8.51953 2.71894 9.03755H2.20941C0.991172 9.0375 0 10.0286 0 11.2469V12.7531C0 13.9714 0.991172 14.9625 2.20941 14.9625H2.71894C2.88445 15.4805 3.09328 15.9836 3.34345 16.467L2.98261 16.8279C2.10769 17.7019 2.13113 19.1025 2.98233 19.9528L4.04691 21.0173C4.8967 21.8683 6.29761 21.8929 7.17183 21.0177L7.53295 20.6565C8.01638 20.9067 8.51958 21.1155 9.0375 21.2811V21.7906C9.0375 23.0089 10.0287 24 11.2469 24H12.7531C13.9714 24 14.9625 23.0089 14.9625 21.7906V21.2811C15.4805 21.1156 15.9837 20.9067 16.4671 20.6565L16.8279 21.0173C17.7004 21.8909 19.1012 21.8704 19.9528 21.0176L21.0174 19.953C21.8683 19.1031 21.8929 17.7023 21.0177 16.8281L20.6566 16.467C20.9068 15.9835 21.1156 15.4804 21.2811 14.9624H21.7906C23.0089 14.9624 24 13.9713 24 12.753V11.2468C24 10.0286 23.0088 9.0375 21.7906 9.0375ZM12 17.2219C9.12061 17.2219 6.77813 14.8793 6.77813 12C6.77813 9.12066 9.12061 6.77813 12 6.77813C14.8794 6.77813 17.2219 9.12066 17.2219 12C17.2219 14.8793 14.8794 17.2219 12 17.2219Z" fill="#B5AEBE"/>
</g>
<defs>
<clipPath id="clip0_1097_181">
<rect width="24" height="24" fill="white"/>
</clipPath>
</defs>
</svg>
