<svg width="30" height="30" viewBox="0 0 30 30" fill="none" xmlns="http://www.w3.org/2000/svg">
<g clip-path="url(#clip0_657_663)">
<path d="M23.2263 2.67506L15.395 0.0638069C15.1386 -0.0215945 14.8614 -0.0215945 14.605 0.0638069L6.77375 2.67506C5.52863 3.08866 4.44552 3.88413 3.67831 4.94844C2.91109 6.01276 2.4988 7.29179 2.5 8.60381V15.0001C2.5 24.4538 14 29.6751 14.4925 29.8926C14.6523 29.9635 14.8252 30.0002 15 30.0002C15.1748 30.0002 15.3477 29.9635 15.5075 29.8926C16 29.6751 27.5 24.4538 27.5 15.0001V8.60381C27.5012 7.29179 27.0889 6.01276 26.3217 4.94844C25.5545 3.88413 24.4714 3.08866 23.2263 2.67506ZM20.8975 12.1463L15.5575 17.4863C15.339 17.7063 15.0789 17.8807 14.7925 17.9993C14.506 18.118 14.1988 18.1786 13.8888 18.1776H13.8475C13.5311 18.1727 13.219 18.1037 12.93 17.9748C12.641 17.8459 12.3812 17.6597 12.1663 17.4276L9.28375 14.4276C9.15892 14.3117 9.05906 14.1716 8.99032 14.0158C8.92157 13.86 8.88539 13.6918 8.88398 13.5215C8.88257 13.3513 8.91597 13.1825 8.98213 13.0256C9.04829 12.8687 9.14581 12.7269 9.26871 12.6091C9.39162 12.4912 9.53731 12.3997 9.69685 12.3401C9.85639 12.2806 10.0264 12.2543 10.1965 12.2628C10.3666 12.2713 10.5331 12.3145 10.6859 12.3897C10.8387 12.4649 10.9745 12.5705 11.085 12.7001L13.89 15.6251L19.125 10.3751C19.3608 10.1474 19.6765 10.0214 20.0043 10.0242C20.332 10.0271 20.6455 10.1585 20.8773 10.3903C21.109 10.622 21.2405 10.9356 21.2433 11.2633C21.2462 11.5911 21.1202 11.9068 20.8925 12.1426L20.8975 12.1463Z" fill="#FFD964"/>
</g>
<defs>
<clipPath id="clip0_657_663">
<rect width="30" height="30" fill="white"/>
</clipPath>
</defs>
</svg>
