<svg width="17" height="15" viewBox="0 0 17 15" fill="none" xmlns="http://www.w3.org/2000/svg">
<path d="M15.8097 1.54375C15.556 1.43454 15.2765 1.40583 15.0069 1.46129C14.7373 1.51674 14.4897 1.65385 14.2958 1.85515L12.5 3.7106L9.31527 0.420148C9.05482 0.151128 8.70161 0 8.33333 0C7.96504 0 7.61184 0.151128 7.35138 0.420148L4.16666 3.7106L2.37083 1.85515C2.17659 1.65452 1.92914 1.5179 1.65977 1.46256C1.39039 1.40721 1.11117 1.43563 0.857424 1.54422C0.603674 1.6528 0.386781 1.83668 0.234164 2.07261C0.0815473 2.30854 5.86449e-05 2.58592 0 2.86969L0 10.4651C0.00110268 11.4163 0.367279 12.3281 1.01821 13.0006C1.66914 13.6732 2.55167 14.0515 3.47222 14.0526H13.1944C14.115 14.0515 14.9975 13.6732 15.6484 13.0006C16.2994 12.3281 16.6656 11.4163 16.6667 10.4651V2.86969C16.6667 2.5859 16.5853 2.30846 16.4328 2.07244C16.2803 1.83643 16.0634 1.65245 15.8097 1.54375Z" fill="url(#paint0_linear_657_707)"/>
<defs>
<linearGradient id="paint0_linear_657_707" x1="-6.25" y1="-3.51316" x2="20.0938" y2="20.8293" gradientUnits="userSpaceOnUse">
<stop stop-color="#6622CC"/>
<stop offset="1" stop-color="#22CCC2"/>
</linearGradient>
</defs>
</svg>
